<?xml version="1.0" encoding="UTF-8" standalone="no"?>
<!DOCTYPE svg PUBLIC "-//W3C//DTD SVG 1.1//EN" "http://www.w3.org/Graphics/SVG/1.1/DTD/svg11.dtd">
<svg width="100%" height="100%" viewBox="0 0 247 63" version="1.1" xmlns="http://www.w3.org/2000/svg" xmlns:xlink="http://www.w3.org/1999/xlink" xml:space="preserve" xmlns:serif="http://www.serif.com/" style="fill-rule:evenodd;clip-rule:evenodd;stroke-linejoin:round;stroke-miterlimit:2;">
    <g transform="matrix(1,0,0,1,-207.594,-44.1398)">
        <g transform="matrix(1,0,0,1,41.6664,0)">
            <g transform="matrix(7.03689,0,0,7.03689,-1025.17,-609.708)">
                <path d="M176.512,99.493C176.512,100.005 179.392,101.048 179.116,101.368C178.84,101.688 180.059,101.651 179.116,101.677C178.628,101.691 174.012,101.677 173.452,101.677L169.264,101.677L169.264,93.157L174.208,93.157C174.608,93.157 174.954,93.263 175.246,93.475C175.538,93.687 175.762,93.961 175.918,94.297C176.074,94.633 176.152,94.981 176.152,95.341C176.152,95.733 176.05,96.113 175.846,96.481C175.642,96.849 175.336,97.125 174.928,97.309C175.416,97.453 175.802,97.705 176.086,98.065C176.37,98.425 176.512,98.901 176.512,99.493ZM174.136,99.013C174.136,98.869 174.11,98.743 174.058,98.635C174.006,98.527 173.936,98.441 173.848,98.377C173.76,98.313 173.656,98.281 173.536,98.281L171.604,98.281L171.604,99.709L173.452,99.709C173.58,99.709 173.696,99.681 173.8,99.625C173.904,99.569 173.986,99.489 174.046,99.385C174.106,99.281 174.136,99.157 174.136,99.013ZM171.604,95.149L171.604,96.457L173.2,96.457C173.304,96.457 173.404,96.439 173.5,96.403C173.596,96.367 173.676,96.301 173.74,96.205C173.804,96.109 173.836,95.973 173.836,95.797C173.836,95.637 173.81,95.511 173.758,95.419C173.706,95.327 173.638,95.259 173.554,95.215C173.47,95.171 173.376,95.149 173.272,95.149L171.604,95.149Z" style="fill-rule:nonzero;"/>
                <path d="M179.116,101.797C178.564,101.797 178.072,101.711 177.64,101.539C177.208,101.367 176.846,101.133 176.554,100.837C176.262,100.541 176.04,100.201 175.888,99.817C175.736,99.433 175.66,99.029 175.66,98.605C175.66,97.997 175.792,97.439 176.056,96.931C176.32,96.423 176.708,96.015 177.22,95.707C177.732,95.399 178.364,95.245 179.116,95.245C179.868,95.245 180.5,95.397 181.012,95.701C181.524,96.005 181.912,96.405 182.176,96.901C182.44,97.397 182.572,97.937 182.572,98.521C182.572,98.641 182.566,98.763 182.554,98.887C182.542,99.011 182.528,99.121 182.512,99.217L178.084,99.217C178.1,99.441 178.162,99.623 178.27,99.763C178.378,99.903 178.514,100.005 178.678,100.069C178.842,100.133 179.012,100.165 179.188,100.165C179.436,100.165 179.67,100.109 179.89,99.997C180.11,99.885 180.256,99.729 180.328,99.529L182.26,100.081C182.092,100.417 181.858,100.713 181.558,100.969C181.258,101.225 180.904,101.427 180.496,101.575C180.088,101.723 179.628,101.797 179.116,101.797ZM178.036,97.849L180.124,97.849C180.1,97.641 180.042,97.465 179.95,97.321C179.858,97.177 179.738,97.065 179.59,96.985C179.442,96.905 179.272,96.865 179.08,96.865C178.888,96.865 178.718,96.905 178.57,96.985C178.422,97.065 178.302,97.177 178.21,97.321C178.118,97.465 178.06,97.641 178.036,97.849Z" style="fill-rule:nonzero;"/>
                <path d="M188.308,101.677L186.028,101.677L186.028,98.125C186.028,97.813 185.958,97.587 185.818,97.447C185.678,97.307 185.516,97.237 185.332,97.237C185.204,97.237 185.068,97.275 184.924,97.351C184.78,97.427 184.648,97.533 184.528,97.669C184.408,97.805 184.312,97.961 184.24,98.137L184.24,101.677L181.96,101.677L181.96,95.365L184.012,95.365L184.012,96.301C184.164,96.069 184.356,95.875 184.588,95.719C184.82,95.563 185.088,95.445 185.392,95.365C185.696,95.285 186.028,95.245 186.388,95.245C186.82,95.245 187.164,95.321 187.42,95.473C187.676,95.625 187.868,95.821 187.996,96.061C188.124,96.301 188.208,96.551 188.248,96.811C188.288,97.071 188.308,97.309 188.308,97.525L188.308,101.677Z" style="fill-rule:nonzero;"/>
                <path d="M187.444,98.509C187.444,97.885 187.562,97.327 187.798,96.835C188.034,96.343 188.36,95.955 188.776,95.671C189.192,95.387 189.668,95.245 190.204,95.245C190.612,95.245 190.988,95.339 191.332,95.527C191.676,95.715 191.936,95.973 192.112,96.301L192.112,92.917L194.392,92.917L194.392,99.157C194.392,99.373 194.424,99.523 194.488,99.607C194.552,99.691 194.664,99.741 194.824,99.757L194.824,101.677C194.432,101.757 194.112,101.797 193.864,101.797C193.48,101.797 193.176,101.725 192.952,101.581C192.728,101.437 192.584,101.217 192.52,100.921L192.472,100.693C192.256,101.077 191.964,101.357 191.596,101.533C191.228,101.709 190.836,101.797 190.42,101.797C189.988,101.797 189.59,101.717 189.226,101.557C188.862,101.397 188.546,101.171 188.278,100.879C188.01,100.587 187.804,100.239 187.66,99.835C187.516,99.431 187.444,98.989 187.444,98.509ZM192.124,99.229L192.124,98.101C192.052,97.917 191.954,97.755 191.83,97.615C191.706,97.475 191.568,97.365 191.416,97.285C191.264,97.205 191.108,97.165 190.948,97.165C190.78,97.165 190.626,97.201 190.486,97.273C190.346,97.345 190.224,97.445 190.12,97.573C190.016,97.701 189.936,97.849 189.88,98.017C189.824,98.185 189.796,98.365 189.796,98.557C189.796,98.757 189.826,98.937 189.886,99.097C189.946,99.257 190.032,99.395 190.144,99.511C190.256,99.627 190.388,99.717 190.54,99.781C190.692,99.845 190.86,99.877 191.044,99.877C191.156,99.877 191.26,99.863 191.356,99.835C191.452,99.807 191.544,99.767 191.632,99.715C191.72,99.663 191.806,99.595 191.89,99.511C191.974,99.427 192.052,99.333 192.124,99.229Z" style="fill:rgb(255,117,0);fill-rule:nonzero;"/>
                <path d="M197.176,101.797C196.624,101.797 196.132,101.711 195.7,101.539C195.268,101.367 194.906,101.133 194.614,100.837C194.322,100.541 194.1,100.201 193.948,99.817C193.796,99.433 193.72,99.029 193.72,98.605C193.72,97.997 193.852,97.439 194.116,96.931C194.38,96.423 194.768,96.015 195.28,95.707C195.792,95.399 196.424,95.245 197.176,95.245C197.928,95.245 198.56,95.397 199.072,95.701C199.584,96.005 199.972,96.405 200.236,96.901C200.5,97.397 200.632,97.937 200.632,98.521C200.632,98.641 200.626,98.763 200.614,98.887C200.602,99.011 200.588,99.121 200.572,99.217L196.144,99.217C196.16,99.441 196.222,99.623 196.33,99.763C196.438,99.903 196.574,100.005 196.738,100.069C196.902,100.133 197.072,100.165 197.248,100.165C197.496,100.165 197.73,100.109 197.95,99.997C198.17,99.885 198.316,99.729 198.388,99.529L200.32,100.081C200.152,100.417 199.918,100.713 199.618,100.969C199.318,101.225 198.964,101.427 198.556,101.575C198.148,101.723 197.688,101.797 197.176,101.797ZM196.096,97.849L198.184,97.849C198.16,97.641 198.102,97.465 198.01,97.321C197.918,97.177 197.798,97.065 197.65,96.985C197.502,96.905 197.332,96.865 197.14,96.865C196.948,96.865 196.778,96.905 196.63,96.985C196.482,97.065 196.362,97.177 196.27,97.321C196.178,97.465 196.12,97.641 196.096,97.849Z" style="fill:rgb(255,117,0);fill-rule:nonzero;"/>
                <path d="M204.304,97.309C203.864,97.309 203.464,97.357 203.104,97.453C202.744,97.549 202.476,97.709 202.3,97.933L202.3,101.677L200.02,101.677L200.02,95.365L202.108,95.365L202.108,96.565C202.332,96.141 202.612,95.815 202.948,95.587C203.284,95.359 203.64,95.245 204.016,95.245L204.202,95.245C204.238,95.245 204.272,95.249 204.304,95.257L204.304,97.309Z" style="fill:rgb(255,117,0);fill-rule:nonzero;"/>
            </g>
        </g>
    </g>
</svg>
